<svg xmlns="http://www.w3.org/2000/svg" data-name="Layer 1" viewBox="0 0 100 125" x="0px" y="0px"><title>Help</title><path d="M50,10A40,40,0,1,1,10,50,40,40,0,0,1,50,10M50,0a50,50,0,1,0,50,50A50,50,0,0,0,50,0Z"/><path d="M53.23,65.73H44.87a2.16,2.16,0,0,0-2.16,2.16v7A2.16,2.16,0,0,0,44.87,77h8.36a2.16,2.16,0,0,0,2.16-2.16v-7A2.16,2.16,0,0,0,53.23,65.73ZM68.54,38.25a14.14,14.14,0,0,0-4.85-9.73c-5.11-4.83-11.2-6.41-18.08-5.05-6,1.19-10.43,4.69-13.62,9.85-.84,1.36-.74,1.85.52,2.78l6.13,4.55A1.46,1.46,0,0,0,41,40.36c1-1.23,2.09-2.48,3.23-3.62a7.63,7.63,0,0,1,9.86-.63,4,4,0,0,1,.13,6.53,21.17,21.17,0,0,1-2.6,1.58c-1.1.65-2.27,1.22-3.31,2-3.48,2.53-5.85,5.65-5.38,10.28.12,1.24.57,1.79,1.84,1.8,1.53,0,3.05,0,4.58,0H54c.85,0,1.51-.34,1.64-1.21.37-2.54,2-4.14,4-5.43,1.19-.76,2.44-1.42,3.58-2.23A12.21,12.21,0,0,0,68.54,38.25Z"/><text x="0" y="115" fill="#000000" font-size="5px" font-weight="bold" font-family="'Helvetica Neue', Helvetica, Arial-Unicode, Arial, Sans-serif">Created by Rainbow Designs</text><text x="0" y="120" fill="#000000" font-size="5px" font-weight="bold" font-family="'Helvetica Neue', Helvetica, Arial-Unicode, Arial, Sans-serif">from the Noun Project</text></svg>