<?xml version="1.0" encoding="iso-8859-1"?>
<!-- Generator: Adobe Illustrator 16.0.0, SVG Export Plug-In . SVG Version: 6.00 Build 0)  -->
<!DOCTYPE svg PUBLIC "-//W3C//DTD SVG 1.1//EN" "http://www.w3.org/Graphics/SVG/1.1/DTD/svg11.dtd">
<svg version="1.1" id="Capa_1" xmlns="http://www.w3.org/2000/svg" xmlns:xlink="http://www.w3.org/1999/xlink" x="0px" y="0px"
	 width="548.291px" height="548.291px" viewBox="0 0 548.291 548.291" style="enable-background:new 0 0 548.291 548.291;"
	 xml:space="preserve">
<g>
	<path d="M486.201,196.121h-13.166v-63.525c0-0.396-0.062-0.795-0.115-1.196c-0.021-2.523-0.825-5-2.552-6.964L364.657,3.677
		c-0.033-0.031-0.064-0.042-0.085-0.075c-0.63-0.704-1.364-1.29-2.143-1.796c-0.229-0.154-0.461-0.283-0.702-0.418
		c-0.672-0.366-1.387-0.671-2.121-0.892c-0.2-0.055-0.379-0.136-0.577-0.188C358.23,0.118,357.401,0,356.562,0H96.757
		C84.894,0,75.256,9.649,75.256,21.502v174.613H62.092c-16.971,0-30.732,13.756-30.732,30.733v159.812
		c0,16.968,13.761,30.731,30.732,30.731h13.164V526.79c0,11.854,9.638,21.501,21.501,21.501h354.776
		c11.853,0,21.501-9.647,21.501-21.501V417.392h13.166c16.966,0,30.729-13.764,30.729-30.731V226.854
		C516.93,209.877,503.167,196.121,486.201,196.121z M96.757,21.507h249.054v110.01c0,5.939,4.817,10.75,10.751,10.75h94.972v53.861
		H96.757V21.507z M323.311,223.638v160.545h-36.447V223.638H323.311z M146.309,253.649v-30.011h116.474v20.967l-74.789,108.618
		v0.944h75.985v30.016H139.165v-19.537l76.465-110.039v-0.958H146.309z M451.534,520.968H96.757V417.392h354.776V520.968z
		 M455.276,310.586c-12.384,11.671-30.724,16.903-52.164,16.903c-4.775,0-9.05-0.23-12.388-0.709v57.402H354.76v-158.4
		c11.192-1.914,26.909-3.336,49.061-3.336c22.399,0,38.349,4.284,49.077,12.861c10.236,8.097,17.145,21.438,17.145,37.161
		C470.047,288.188,464.804,301.526,455.276,310.586z"/>
	<path d="M405.738,249.838c-7.401,0-12.405,0.717-15.014,1.436v47.397c3.086,0.714,6.908,0.956,12.152,0.956
		c19.286,0,31.203-9.775,31.203-26.201C434.08,258.655,423.837,249.838,405.738,249.838z"/>
</g>
<g>
</g>
<g>
</g>
<g>
</g>
<g>
</g>
<g>
</g>
<g>
</g>
<g>
</g>
<g>
</g>
<g>
</g>
<g>
</g>
<g>
</g>
<g>
</g>
<g>
</g>
<g>
</g>
<g>
</g>
</svg>
